<?xml version="1.0" standalone="no"?>
<!DOCTYPE svg PUBLIC "-//W3C//DTD SVG 20010904//EN"
 "http://www.w3.org/TR/2001/REC-SVG-20010904/DTD/svg10.dtd">
<svg version="1.0" xmlns="http://www.w3.org/2000/svg"
 width="200.000000pt" height="200.000000pt" viewBox="0 0 200.000000 200.000000"
 preserveAspectRatio="xMidYMid meet">

<g transform="translate(0.000000,200.000000) scale(0.100000,-0.100000)"
fill="#000000" stroke="none">
<path d="M525 1039 c-3 -4 7 -7 22 -6 25 2 28 -2 31 -30 4 -38 22 -45 22 -9 0
34 26 53 51 38 24 -16 29 -15 29 3 0 11 -16 14 -75 13 -42 0 -78 -4 -80 -9z"/>
<path d="M490 1015 c0 -8 5 -15 10 -15 6 0 10 7 10 15 0 8 -4 15 -10 15 -5 0
-10 -7 -10 -15z"/>
<path d="M537 1024 c-4 -4 -7 -17 -7 -28 0 -15 3 -17 9 -8 6 10 10 8 16 -10
l8 -23 4 24 c5 24 -18 57 -30 45z"/>
<path d="M621 1016 c-9 -11 -6 -15 19 -18 28 -4 29 -4 13 14 -19 22 -18 21
-32 4z"/>
</g>
</svg>
